<svg xmlns="http://www.w3.org/2000/svg" viewBox="46.035 70.569 402.834 360.793" width="402.834px" height="360.793px">
  <path d="M 344.149 109.235 C 322.669 109.235 302.448 119.787 289.859 137.588 L 262.794 175.932 C 259.254 180.926 253.588 183.906 247.531 183.906 C 241.473 183.906 235.807 180.926 232.267 175.932 L 205.202 137.588 C 192.613 119.787 172.392 109.235 150.913 109.235 C 113.935 109.235 83.959 139.925 83.959 177.784 C 83.959 217.979 109.136 257.047 137.538 292.409 C 169.875 332.686 209.451 368.129 236.595 389.313 C 239.112 391.247 242.809 392.697 247.61 392.697 C 252.409 392.697 256.107 391.247 258.624 389.313 C 285.768 368.129 325.345 332.605 357.68 292.409 C 386.162 257.047 411.261 217.979 411.261 177.784 C 411.261 139.925 381.284 109.235 344.306 109.235 L 344.149 109.235 Z M 259.254 114.954 C 278.924 87.083 310.553 70.569 344.149 70.569 C 401.977 70.569 448.869 118.578 448.869 177.784 C 448.869 233.042 415.116 281.615 386.634 316.978 C 351.937 360.153 310.081 397.611 281.362 420.004 C 271.686 427.576 259.726 431.362 247.453 431.362 C 235.179 431.362 223.219 427.576 213.542 420.004 C 184.824 397.611 142.966 360.153 108.27 317.058 C 79.788 281.697 46.035 233.042 46.035 177.784 C 46.035 118.578 92.928 70.569 150.755 70.569 C 184.352 70.569 215.98 87.083 235.651 114.954 L 247.453 131.628 L 259.254 114.954 Z" style="stroke-width: 1; fill: rgb(220, 10, 45);" transform="matrix(1, 0, 0, 1, 0, 1.4210854715202004e-14)"/>
</svg>