<svg xmlns="http://www.w3.org/2000/svg" viewBox="45.478 70.487 402.937 359.702" width="402.937px" height="359.702px">
  <path d="M 235.142 114.727 L 246.946 131.347 L 258.751 114.727 C 278.426 86.947 310.063 70.487 343.667 70.487 C 401.51 70.487 448.415 118.34 448.415 177.354 L 448.415 179.441 C 448.415 269.527 338.315 374.146 280.865 418.868 C 271.107 426.415 259.145 430.189 246.946 430.189 C 234.748 430.189 222.707 426.495 213.027 418.868 C 155.577 374.146 45.478 269.527 45.478 179.441 L 45.478 177.354 C 45.478 118.34 92.382 70.487 150.226 70.487 C 183.83 70.487 215.467 86.947 235.142 114.727 Z" style="stroke-width: 1; fill: rgb(220, 10, 45);" transform="matrix(1, 0, 0, 1, 0, 1.4210854715202004e-14)"/>
</svg>